<svg id="Group_5" data-name="Group 5" xmlns="http://www.w3.org/2000/svg" xmlns:xlink="http://www.w3.org/1999/xlink" viewBox="2279.101 190.963 100.57 98.829">
  <defs>
    <style>
      .cls-1, .cls-2 {
        fill: #fff;
      }

      .cls-1 {
        fill-rule: evenodd;
      }

      .cls-3 {
        filter: url(#Path_8);
      }

      .cls-4 {
        filter: url(#Path_7);
      }

      .cls-5 {
        filter: url(#Path_6);
      }

      .cls-6 {
        filter: url(#Path_5);
      }

      .cls-7 {
        filter: url(#Path_4);
      }

      .cls-8 {
        filter: url(#Path_3);
      }

      .cls-9 {
        filter: url(#Path_2);
      }

      .cls-10 {
        filter: url(#Path_1);
      }
    </style>
    <filter id="Path_1" x="2279.101" y="190.963" width="100.57" height="98.829" filterUnits="userSpaceOnUse">
      <feOffset dx="3" dy="3" input="SourceAlpha"/>
      <feGaussianBlur stdDeviation="5" result="blur"/>
      <feFlood flood-opacity="0.502"/>
      <feComposite operator="in" in2="blur"/>
      <feComposite in="SourceGraphic"/>
    </filter>
    <filter id="Path_2" x="2291.552" y="241.03" width="30.944" height="30.768" filterUnits="userSpaceOnUse">
      <feOffset dx="3" dy="3" input="SourceAlpha"/>
      <feGaussianBlur stdDeviation="5" result="blur-2"/>
      <feFlood flood-opacity="0.502"/>
      <feComposite operator="in" in2="blur-2"/>
      <feComposite in="SourceGraphic"/>
    </filter>
    <filter id="Path_3" x="2292.987" y="242.242" width="31.032" height="31.059" filterUnits="userSpaceOnUse">
      <feOffset dx="3" dy="3" input="SourceAlpha"/>
      <feGaussianBlur stdDeviation="5" result="blur-3"/>
      <feFlood flood-opacity="0.502"/>
      <feComposite operator="in" in2="blur-3"/>
      <feComposite in="SourceGraphic"/>
    </filter>
    <filter id="Path_4" x="2294.355" y="244.047" width="31.104" height="31.265" filterUnits="userSpaceOnUse">
      <feOffset dx="3" dy="3" input="SourceAlpha"/>
      <feGaussianBlur stdDeviation="5" result="blur-4"/>
      <feFlood flood-opacity="0.502"/>
      <feComposite operator="in" in2="blur-4"/>
      <feComposite in="SourceGraphic"/>
    </filter>
    <filter id="Path_5" x="2295.996" y="246.03" width="31.326" height="31.311" filterUnits="userSpaceOnUse">
      <feOffset dx="3" dy="3" input="SourceAlpha"/>
      <feGaussianBlur stdDeviation="5" result="blur-5"/>
      <feFlood flood-opacity="0.502"/>
      <feComposite operator="in" in2="blur-5"/>
      <feComposite in="SourceGraphic"/>
    </filter>
    <filter id="Path_6" x="2298.356" y="247.584" width="31.493" height="31.101" filterUnits="userSpaceOnUse">
      <feOffset dx="3" dy="3" input="SourceAlpha"/>
      <feGaussianBlur stdDeviation="5" result="blur-6"/>
      <feFlood flood-opacity="0.502"/>
      <feComposite operator="in" in2="blur-6"/>
      <feComposite in="SourceGraphic"/>
    </filter>
    <filter id="Path_7" x="2301.209" y="248.051" width="31.513" height="31.052" filterUnits="userSpaceOnUse">
      <feOffset dx="3" dy="3" input="SourceAlpha"/>
      <feGaussianBlur stdDeviation="5" result="blur-7"/>
      <feFlood flood-opacity="0.502"/>
      <feComposite operator="in" in2="blur-7"/>
      <feComposite in="SourceGraphic"/>
    </filter>
    <filter id="Path_8" x="2303.908" y="247.708" width="31.508" height="31.072" filterUnits="userSpaceOnUse">
      <feOffset dx="3" dy="3" input="SourceAlpha"/>
      <feGaussianBlur stdDeviation="5" result="blur-8"/>
      <feFlood flood-opacity="0.502"/>
      <feComposite operator="in" in2="blur-8"/>
      <feComposite in="SourceGraphic"/>
    </filter>
  </defs>
  <g class="cls-10" transform="matrix(1, 0, 0, 1, 0, 0)">
    <path id="Path_1-2" data-name="Path 1" class="cls-1" d="M35.277,0A35.288,35.288,0,0,0,24.122,68.77c1.753.327,2.407-.765,2.407-1.7,0-.841-.029-3.617-.047-6.568-9.817,2.133-11.885-4.16-11.885-4.16-1.607-4.09-3.921-5.165-3.921-5.165-3.2-2.191.24-2.144.24-2.144,3.547.251,5.411,3.635,5.411,3.635,3.15,5.393,8.257,3.839,10.267,2.922a7.53,7.53,0,0,1,2.244-4.716c-7.812-.882-16.081-3.909-16.081-17.431a13.644,13.644,0,0,1,3.64-9.484,12.684,12.684,0,0,1,.339-9.349s2.963-.947,9.706,3.617a33.517,33.517,0,0,1,17.676,0c6.708-4.54,9.694-3.617,9.694-3.617a12.709,12.709,0,0,1,.345,9.349,13.638,13.638,0,0,1,3.629,9.472c0,13.556-8.251,16.536-16.11,17.413,1.262,1.093,2.39,3.243,2.39,6.533,0,4.721-.035,8.525-.035,9.682,0,.941.631,2.039,2.419,1.695A35.288,35.288,0,0,0,35.277,0Z" transform="translate(2291.13 202.96)"/>
  </g>
  <g id="Group_4" data-name="Group 4">
    <g class="cls-9" transform="matrix(1, 0, 0, 1, 0, 0)">
      <path id="Path_2-2" data-name="Path 2" class="cls-2" d="M22.211,86.277a.428.428,0,0,1-.584.111c-.234-.117-.4-.356-.321-.532a.431.431,0,0,1,.584-.111c.228.117.4.356.316.532Z" transform="translate(2282.27 167.35)"/>
    </g>
    <g class="cls-8" transform="matrix(1, 0, 0, 1, 0, 0)">
      <path id="Path_3-2" data-name="Path 3" class="cls-2" d="M24.663,88.735c-.169.158-.5.082-.725-.164a.538.538,0,0,1-.1-.73c.175-.158.491-.082.725.164S24.838,88.589,24.663,88.735Z" transform="translate(2281.25 166.48)"/>
    </g>
    <g class="cls-7" transform="matrix(1, 0, 0, 1, 0, 0)">
      <path id="Path_4-2" data-name="Path 4" class="cls-2" d="M27.027,92.053c-.216.152-.584,0-.789-.3s-.216-.69,0-.841.584,0,.789.3S27.243,91.9,27.027,92.053Z" transform="translate(2280.27 165.2)"/>
    </g>
    <g class="cls-6" transform="matrix(1, 0, 0, 1, 0, 0)">
      <path id="Path_5-2" data-name="Path 5" class="cls-2" d="M30.122,95.427a.66.66,0,0,1-.929-.158c-.31-.286-.4-.689-.2-.9s.584-.158.912.134.4.69.193.9Z" transform="translate(2279.11 163.79)"/>
    </g>
    <g class="cls-5" transform="matrix(1, 0, 0, 1, 0, 0)">
      <path id="Path_6-2" data-name="Path 6" class="cls-2" d="M34.407,97.671c-.088.275-.479.4-.882.286s-.66-.444-.584-.725.479-.409.882-.286S34.483,97.391,34.407,97.671Z" transform="translate(2277.43 162.68)"/>
    </g>
    <g class="cls-4" transform="matrix(1, 0, 0, 1, 0, 0)">
      <path id="Path_7-2" data-name="Path 7" class="cls-2" d="M39.323,98.214c0,.292-.327.532-.748.538s-.76-.222-.765-.514.327-.532.754-.538S39.323,97.928,39.323,98.214Z" transform="translate(2275.4 162.35)"/>
    </g>
    <g class="cls-3" transform="matrix(1, 0, 0, 1, 0, 0)">
      <path id="Path_8-2" data-name="Path 8" class="cls-2" d="M43.932,97.514c.053.286-.24.584-.654.654s-.789-.1-.841-.386.245-.584.654-.654S43.879,97.228,43.932,97.514Z" transform="translate(2273.48 162.6)"/>
    </g>
  </g>
</svg>
