<svg xmlns="http://www.w3.org/2000/svg" xmlns:xlink="http://www.w3.org/1999/xlink" viewBox="1996.651 245.963 80 78.766">
  <defs>
    <style>
      .cls-1, .cls-2 {
        fill: #fff;
      }

      .cls-1 {
        fill-rule: evenodd;
      }

      .cls-3 {
        filter: url(#Path_8);
      }

      .cls-4 {
        filter: url(#Path_7);
      }

      .cls-5 {
        filter: url(#Path_6);
      }

      .cls-6 {
        filter: url(#Path_5);
      }

      .cls-7 {
        filter: url(#Path_4);
      }

      .cls-8 {
        filter: url(#Path_3);
      }

      .cls-9 {
        filter: url(#Path_2);
      }

      .cls-10 {
        filter: url(#Path_1);
      }
    </style>
    <filter id="Path_1" x="1996.651" y="245.963" width="80" height="78.766" filterUnits="userSpaceOnUse">
      <feOffset dx="3" dy="3" input="SourceAlpha"/>
      <feGaussianBlur stdDeviation="5" result="blur"/>
      <feFlood flood-opacity="0.502"/>
      <feComposite operator="in" in2="blur"/>
      <feComposite in="SourceGraphic"/>
    </filter>
    <filter id="Path_2" x="2005.474" y="281.436" width="30.669" height="30.544" filterUnits="userSpaceOnUse">
      <feOffset dx="3" dy="3" input="SourceAlpha"/>
      <feGaussianBlur stdDeviation="5" result="blur-2"/>
      <feFlood flood-opacity="0.502"/>
      <feComposite operator="in" in2="blur-2"/>
      <feComposite in="SourceGraphic"/>
    </filter>
    <filter id="Path_3" x="2006.49" y="282.295" width="30.731" height="30.75" filterUnits="userSpaceOnUse">
      <feOffset dx="3" dy="3" input="SourceAlpha"/>
      <feGaussianBlur stdDeviation="5" result="blur-3"/>
      <feFlood flood-opacity="0.502"/>
      <feComposite operator="in" in2="blur-3"/>
      <feComposite in="SourceGraphic"/>
    </filter>
    <filter id="Path_4" x="2007.459" y="283.574" width="30.782" height="30.896" filterUnits="userSpaceOnUse">
      <feOffset dx="3" dy="3" input="SourceAlpha"/>
      <feGaussianBlur stdDeviation="5" result="blur-4"/>
      <feFlood flood-opacity="0.502"/>
      <feComposite operator="in" in2="blur-4"/>
      <feComposite in="SourceGraphic"/>
    </filter>
    <filter id="Path_5" x="2008.622" y="284.979" width="30.939" height="30.929" filterUnits="userSpaceOnUse">
      <feOffset dx="3" dy="3" input="SourceAlpha"/>
      <feGaussianBlur stdDeviation="5" result="blur-5"/>
      <feFlood flood-opacity="0.502"/>
      <feComposite operator="in" in2="blur-5"/>
      <feComposite in="SourceGraphic"/>
    </filter>
    <filter id="Path_6" x="2010.294" y="286.08" width="31.058" height="30.78" filterUnits="userSpaceOnUse">
      <feOffset dx="3" dy="3" input="SourceAlpha"/>
      <feGaussianBlur stdDeviation="5" result="blur-6"/>
      <feFlood flood-opacity="0.502"/>
      <feComposite operator="in" in2="blur-6"/>
      <feComposite in="SourceGraphic"/>
    </filter>
    <filter id="Path_7" x="2012.316" y="286.411" width="31.072" height="30.745" filterUnits="userSpaceOnUse">
      <feOffset dx="3" dy="3" input="SourceAlpha"/>
      <feGaussianBlur stdDeviation="5" result="blur-7"/>
      <feFlood flood-opacity="0.502"/>
      <feComposite operator="in" in2="blur-7"/>
      <feComposite in="SourceGraphic"/>
    </filter>
    <filter id="Path_8" x="2014.228" y="286.168" width="31.068" height="30.759" filterUnits="userSpaceOnUse">
      <feOffset dx="3" dy="3" input="SourceAlpha"/>
      <feGaussianBlur stdDeviation="5" result="blur-8"/>
      <feFlood flood-opacity="0.502"/>
      <feComposite operator="in" in2="blur-8"/>
      <feComposite in="SourceGraphic"/>
    </filter>
  </defs>
  <g id="Group_5" data-name="Group 5" transform="translate(-282.449 55)">
    <g class="cls-10" transform="matrix(1, 0, 0, 1, 282.45, -55)">
      <path id="Path_1-2" data-name="Path 1" class="cls-1" d="M24.987,0a25,25,0,0,0-7.9,48.724c1.242.232,1.706-.542,1.706-1.2,0-.6-.021-2.563-.033-4.653-6.955,1.511-8.421-2.948-8.421-2.948-1.139-2.9-2.778-3.66-2.778-3.66-2.269-1.553.17-1.519.17-1.519a5.257,5.257,0,0,1,3.834,2.575c2.231,3.821,5.85,2.72,7.274,2.07a5.335,5.335,0,0,1,1.59-3.341c-5.535-.625-11.393-2.77-11.393-12.35a9.667,9.667,0,0,1,2.579-6.719,8.987,8.987,0,0,1,.24-6.624s2.1-.671,6.877,2.563a23.747,23.747,0,0,1,12.524,0C36,9.7,38.119,10.35,38.119,10.35a9,9,0,0,1,.244,6.624,9.663,9.663,0,0,1,2.571,6.711c0,9.6-5.846,11.716-11.414,12.337a5.982,5.982,0,0,1,1.693,4.629c0,3.345-.025,6.04-.025,6.86,0,.667.447,1.445,1.714,1.2A25,25,0,0,0,24.987,0Z" transform="translate(2008.68 257.96)"/>
    </g>
    <g id="Group_4" data-name="Group 4" transform="translate(2299.923 238.436)">
      <g class="cls-9" transform="matrix(1, 0, 0, 1, -2017.47, -293.44)">
        <path id="Path_2-2" data-name="Path 2" class="cls-2" d="M21.941,86.1a.3.3,0,0,1-.414.079c-.166-.083-.286-.253-.228-.377a.305.305,0,0,1,.414-.079c.161.083.286.253.224.377Z" transform="translate(1996.19 207.75)"/>
      </g>
      <g class="cls-8" transform="matrix(1, 0, 0, 1, -2017.47, -293.44)">
        <path id="Path_3-2" data-name="Path 3" class="cls-2" d="M24.393,88.451c-.12.112-.352.058-.513-.116a.381.381,0,0,1-.07-.518c.124-.112.348-.058.513.116S24.518,88.347,24.393,88.451Z" transform="translate(1994.75 206.54)"/>
      </g>
      <g class="cls-7" transform="matrix(1, 0, 0, 1, -2017.47, -293.44)">
        <path id="Path_4-2" data-name="Path 4" class="cls-2" d="M26.751,91.7c-.153.108-.414,0-.559-.215s-.153-.489,0-.6.414,0,.559.211S26.9,91.594,26.751,91.7Z" transform="translate(1993.38 204.73)"/>
      </g>
      <g class="cls-6" transform="matrix(1, 0, 0, 1, -2017.47, -293.44)">
        <path id="Path_5-2" data-name="Path 5" class="cls-2" d="M29.762,95.081a.468.468,0,0,1-.658-.112c-.219-.2-.282-.489-.141-.638s.414-.112.646.1.282.489.137.638Z" transform="translate(1991.73 202.74)"/>
      </g>
      <g class="cls-5" transform="matrix(1, 0, 0, 1, -2017.47, -293.44)">
        <path id="Path_6-2" data-name="Path 6" class="cls-2" d="M33.976,97.447c-.062.195-.339.286-.625.2s-.468-.315-.414-.513.339-.29.625-.2S34.03,97.248,33.976,97.447Z" transform="translate(1989.37 201.18)"/>
      </g>
      <g class="cls-4" transform="matrix(1, 0, 0, 1, -2017.47, -293.44)">
        <path id="Path_7-2" data-name="Path 7" class="cls-2" d="M38.882,98.064c0,.207-.232.377-.53.381s-.538-.157-.542-.364.232-.377.534-.381S38.882,97.861,38.882,98.064Z" transform="translate(1986.51 200.71)"/>
      </g>
      <g class="cls-3" transform="matrix(1, 0, 0, 1, -2017.47, -293.44)">
        <path id="Path_8-2" data-name="Path 8" class="cls-2" d="M43.494,97.4c.037.2-.17.414-.464.464s-.559-.07-.6-.273.174-.414.464-.464S43.457,97.195,43.494,97.4Z" transform="translate(1983.8 201.05)"/>
      </g>
    </g>
  </g>
</svg>
