<svg xmlns="http://www.w3.org/2000/svg" viewBox="2083.891 336.892 25 25">
  <g id="paintbrush" transform="translate(2083.892 336.892)">
    <g id="Group_7" data-name="Group 7" transform="translate(0 0)">
      <path id="Union_1" data-name="Union 1" d="M.89,24.11a3.046,3.046,0,0,1,0-4.3c.165-.165.668-.668,6.067-4.11a1.642,1.642,0,0,0,.28-2.547L5.4,11.312a.843.843,0,0,1,0-1.192L7.337,8.183l9.48,9.48L14.88,19.6a.842.842,0,0,1-1.192,0l-1.837-1.837a1.645,1.645,0,0,0-2.547.28c-3.441,5.4-3.944,5.9-4.11,6.067a3.046,3.046,0,0,1-4.3,0Zm1.361-3.046a1.192,1.192,0,1,0,.843-.349A1.191,1.191,0,0,0,2.251,21.064ZM8.583,6.937,15.273.247a.843.843,0,0,1,1.192,0l.861.862a.842.842,0,0,1,.173.942l-.227.5.475-.228a.842.842,0,0,1,.962.164l2.744,2.744a.842.842,0,0,1,.1,1.066l-1.8,2.678,2.66-1.808a.843.843,0,0,1,1.07.1l1.265,1.265a.843.843,0,0,1,0,1.192l-6.69,6.69Z"/>
    </g>
  </g>
</svg>
