<svg xmlns="http://www.w3.org/2000/svg" xmlns:xlink="http://www.w3.org/1999/xlink" viewBox="2119 245.963 80 76.297">
  <defs>
    <style>
      .cls-1 {
        fill: #fff;
      }

      .cls-2 {
        filter: url(#path12301);
      }
    </style>
    <filter id="path12301" x="2119" y="245.963" width="80" height="76.297" filterUnits="userSpaceOnUse">
      <feOffset dx="3" dy="3" input="SourceAlpha"/>
      <feGaussianBlur stdDeviation="5" result="blur"/>
      <feFlood flood-opacity="0.502"/>
      <feComposite operator="in" in2="blur"/>
      <feComposite in="SourceGraphic"/>
    </filter>
  </defs>
  <g class="cls-2" transform="matrix(1, 0, 0, 1, 0, 0)">
    <path id="path12301-2" data-name="path12301" class="cls-1" d="M25.087-509.747l.058,8.4c.474.243.959.52,1.468.8.007-.009.014-.018.021-.026l1.735.459a1.069,1.069,0,0,0,.243.295,9.449,9.449,0,0,1,1.965.2c.069.162.185.3.254.463.374-.55.849-.467,1.394-.344l4.515.963a.624.624,0,0,0,.034-.168c.5-.035.289.844.936.555.081-.025.144-.114.207-.195l3.75-.236c.07-.016.14-.034.21-.052l3.476.52,2.521.991H47.9l.058,6.983c1.006.983.994,2.509,1.907,3.468-.023,1.792-.37,3.457-.555,5.191l-.06.08-.439,1.195a.155.155,0,0,1,0,.054c-1.179.509-2.416,1.1-3.63,1.526.174-.347.59-.5.856-.775-.324-.058-.555.092-.856.081-.023-.335.139-.705.1-1.052-.335.15-.613.751-1.052.358a2.857,2.857,0,0,1,.416,1.642l-.971.5c-.012.162-.093.416-.081.5l.081-.081a3.445,3.445,0,0,1-1.33,1.272c-1,.583-2.072,1.157-3,1.738l.231-.747a1.787,1.787,0,0,0,.018-.517c-.185.243-.647.324-.578.555-.277-.162-.832-.081-.913-.5-.243.023-.058.22-.116.358.231.324.763.335.832.752l-1.029.5c-.1-.127-.208-.37-.416-.439-.15.382.254.728.035,1.168l-.119.051-1.7,2.22a13.93,13.93,0,0,1-.679,1.613c-.312-.451-.774.358-1.029-.231-.116.671.682.243,1.029.37a1.368,1.368,0,0,1-.358,1.434c.324,1.179.705,2.3.936,3.526l.416.058c.2.2.162.462.174.775-.6.058-1.133.023-1.757.035-1.711-1.225-4.2-.682-5.688-1.977-.717-.772-.613-2.028-1.355-2.734l-2.394-4.353a10.891,10.891,0,0,0-.876-1.294,27.458,27.458,0,0,0-1.942-4.023,5.681,5.681,0,0,1-2.335-2.185c-.879-.116-1.792-.335-2.636-.358-1.087-.647-1.006.705-2.081.358-.728.416-.578,1.549-.832,2.324l-.8,1.064c-.543.046-1.006-.289-1.5-.37-.96-1.191-2.74-1.11-3.769-2.3l-1.584-4.324c-.462-.694-1.4-.821-2.081-1.248l-2.081-2.416c-.243-.107-.6-.026-.832-.135l-1.43-1.483a1.424,1.424,0,0,1-.235-1.018c4.5-.1,9.006-.046,13.514-.1.069-6.578-.139-13.237.22-19.7,3.827,0,7.653-.046,11.48,0h0" transform="translate(2131.14 767.73)"/>
  </g>
</svg>
