<svg xmlns="http://www.w3.org/2000/svg" viewBox="2131 257.963 150 138.891">
  <defs>
    <style>
      .cls-1 {
        fill: #fff;
      }
    </style>
  </defs>
  <path id="path12301" class="cls-1" d="M75.539-509.706l.174,25.213c1.421.729,2.878,1.561,4.4,2.393.02-.028.043-.053.064-.078l5.206,1.378a3.208,3.208,0,0,0,.73.884,28.343,28.343,0,0,1,5.9.589c.208.486.555.9.763,1.388,1.121-1.649,2.547-1.4,4.182-1.032l13.544,2.888a1.872,1.872,0,0,0,.1-.5c1.492-.1.867,2.532,2.809,1.665.242-.075.431-.342.621-.584l11.251-.708c.211-.049.421-.1.629-.156l10.428,1.559,7.563,2.973.062,0,.173,20.948c3.018,2.948,2.983,7.526,5.722,10.4-.069,5.375-1.11,10.37-1.665,15.572l-.179.241-1.317,3.584a.465.465,0,0,1,0,.163c-3.537,1.526-7.249,3.295-10.89,4.578.521-1.04,1.769-1.491,2.567-2.323-.971-.174-1.665.277-2.567.243-.069-1.006.416-2.116.312-3.156-1.005.45-1.838,2.254-3.156,1.075.728,1.6,1.491,2.982,1.248,4.925l-2.912,1.491c-.036.486-.278,1.249-.244,1.491l.244-.243a10.336,10.336,0,0,1-3.989,3.815c-2.991,1.75-6.215,3.47-9,5.215l.693-2.242a5.361,5.361,0,0,0,.054-1.551c-.554.728-1.942.971-1.734,1.664-.832-.485-2.5-.243-2.74-1.491-.728.069-.174.659-.347,1.075.694.971,2.289,1.006,2.5,2.254l-3.087,1.491c-.312-.382-.624-1.11-1.248-1.318-.451,1.145.763,2.185.1,3.5-.117.048-.236.1-.357.152l-5.1,6.661a41.787,41.787,0,0,1-2.038,4.84c-.937-1.352-2.323,1.075-3.086-.694-.347,2.012,2.046.728,3.086,1.11.66,1.6-.034,3.052-1.075,4.3.971,3.537,2.115,6.9,2.809,10.578L108-373.3c.589.589.486,1.387.521,2.323-1.8.173-3.4.07-5.272.1-5.132-3.676-12.589-2.046-17.063-5.93-2.151-2.316-1.84-6.083-4.064-8.2l-7.181-13.06a32.672,32.672,0,0,0-2.627-3.882c-1.942-4.023-3.26-8.428-5.826-12.069-2.636-1.838-5.688-3.434-7.006-6.555-2.636-.347-5.375-1.006-7.907-1.075-3.26-1.942-3.017,2.116-6.243,1.075-2.185,1.248-1.734,4.647-2.5,6.971l-2.393,3.191c-1.63.139-3.017-.867-4.509-1.109-2.879-3.573-8.22-3.33-11.306-6.9L19.875-431.4c-1.387-2.08-4.2-2.462-6.243-3.745L7.39-442.389c-.729-.321-1.8-.078-2.5-.4L.6-447.244A4.273,4.273,0,0,1-.1-450.3c13.491-.312,27.017-.139,40.543-.312.208-19.734-.416-39.71.659-59.1,11.48,0,22.959-.139,34.439,0h0" transform="translate(2131.139 767.73)"/>
</svg>
